<svg clip-rule="evenodd" fill-rule="evenodd" height="900" image-rendering="optimizeQuality" shape-rendering="geometricPrecision" text-rendering="geometricPrecision" viewBox="0 0 1710 900" width="1710" xmlns="http://www.w3.org/2000/svg"><path d="m1710 0v899.999h-1709.9988189v-899.999z" fill="#bf0a30" transform="matrix(1.0003084 0 0 1 .040769 .001)"/><g fill="#fff" transform="matrix(1.0003333 0 0 1 .568299 .001)"><path d="m-.56811 830.769v-69.231h1709.99811v69.231z"/><path d="m-.56811 138.462v-69.2305h1709.99811v69.2305z"/><path d="m-.56811 276.924v-69.232h1709.99811v69.232z"/><path d="m-.56811 415.384v-69.23h1709.99811v69.23z"/><path d="m-.56811 553.846v-69.23h1709.99811v69.23z"/><path d="m-.56811 692.308v-69.232h1709.99811v69.232z"/></g><path d="m684.058 484.616v-484.6148189h-683.773354v484.6148189z" fill="#002868" transform="matrix(1.0012471 0 0 1 -.285001 .001)"/><g fill="#fff" transform="translate(.56811 .001)"><path d="m615.57 89.9681-16.398-11.9173-16.397 11.9173 6.26-19.2827-16.398-11.9149h20.27l6.265-19.278 6.263 19.278h20.271l-16.398 11.9149z"/><path d="m512.769 89.9681-16.398-11.9173-16.398 11.9173 6.262-19.2827-16.397-11.9149h20.268l6.265-19.278 6.265 19.278h20.269l-16.399 11.9149z"/><path d="m409.97 89.9681-16.397-11.9173-16.4 11.9173 6.262-19.2827-16.397-11.9149h20.269l6.266-19.278 6.263 19.278h20.27l-16.398 11.9149z"/><path d="m307.169 89.9681-16.399-11.9173-16.398 11.9173 6.263-19.2827-16.399-11.9149h20.27l6.264-19.278 6.265 19.278h20.269l-16.397 11.9149z"/><path d="m204.37 89.9681-16.399-11.9173-16.397 11.9173 6.262-19.2827-16.398-11.9149h20.269l6.264-19.278 6.266 19.278h20.268l-16.398 11.9149z"/><path d="m101.568 89.9681-16.3975-11.9173-16.3985 11.9173 6.2623-19.2827-16.3973-11.9149h20.2701l6.2634-19.278 6.2645 19.278h20.27l-16.3971 11.9149z"/><path d="m615.57 267.544-16.398-11.917-16.397 11.917 6.26-19.281-16.398-11.915h20.27l6.265-19.278 6.263 19.278h20.271l-16.398 11.915z"/><path d="m512.769 267.544-16.398-11.917-16.398 11.917 6.262-19.281-16.397-11.915h20.268l6.265-19.278 6.265 19.278h20.269l-16.399 11.915z"/><path d="m409.97 267.544-16.397-11.917-16.4 11.917 6.262-19.281-16.397-11.915h20.269l6.266-19.278 6.263 19.278h20.27l-16.398 11.915z"/><path d="m307.169 267.544-16.399-11.917-16.398 11.917 6.263-19.281-16.399-11.915h20.27l6.264-19.278 6.265 19.278h20.269l-16.397 11.915z"/><path d="m204.37 267.544-16.399-11.917-16.397 11.917 6.262-19.281-16.398-11.915h20.269l6.264-19.278 6.266 19.278h20.268l-16.398 11.915z"/><path d="m101.568 267.544-16.3975-11.917-16.3985 11.917 6.2623-19.281-16.3973-11.915h20.2701l6.2634-19.278 6.2645 19.278h20.27l-16.3971 11.915z"/><path d="m615.57 178.756-16.398-11.918-16.397 11.918 6.26-19.284-16.398-11.913h20.27l6.265-19.278 6.263 19.278h20.271l-16.398 11.913z"/><path d="m512.769 178.756-16.398-11.918-16.398 11.918 6.262-19.284-16.397-11.913h20.268l6.265-19.278 6.265 19.278h20.269l-16.399 11.913z"/><path d="m409.97 178.756-16.397-11.918-16.4 11.918 6.262-19.284-16.397-11.913h20.269l6.266-19.278 6.263 19.278h20.27l-16.398 11.913z"/><path d="m307.169 178.756-16.399-11.918-16.398 11.918 6.263-19.284-16.399-11.913h20.27l6.264-19.278 6.265 19.278h20.269l-16.397 11.913z"/><path d="m204.37 178.756-16.399-11.918-16.397 11.918 6.262-19.284-16.398-11.913h20.269l6.264-19.278 6.266 19.278h20.268l-16.398 11.913z"/><path d="m101.568 178.756-16.3975-11.918-16.3985 11.918 6.2623-19.284-16.3973-11.913h20.2701l6.2634-19.278 6.2645 19.278h20.27l-16.3971 11.913z"/><path d="m615.57 356.334-16.398-11.917-16.397 11.917 6.26-19.284-16.398-11.913h20.27l6.265-19.279 6.263 19.279h20.271l-16.398 11.913z"/><path d="m512.769 356.334-16.398-11.917-16.398 11.917 6.262-19.284-16.397-11.913h20.268l6.265-19.279 6.265 19.279h20.269l-16.399 11.913z"/><path d="m409.97 356.334-16.397-11.917-16.4 11.917 6.262-19.284-16.397-11.913h20.269l6.266-19.279 6.263 19.279h20.27l-16.398 11.913z"/><path d="m307.169 356.334-16.399-11.917-16.398 11.917 6.263-19.284-16.399-11.913h20.27l6.264-19.279 6.265 19.279h20.269l-16.397 11.913z"/><path d="m204.37 356.334-16.399-11.917-16.397 11.917 6.262-19.284-16.398-11.913h20.269l6.264-19.279 6.266 19.279h20.268l-16.398 11.913z"/><path d="m101.568 356.334-16.3975-11.917-16.3985 11.917 6.2623-19.284-16.3973-11.913h20.2701l6.2634-19.279 6.2645 19.279h20.27l-16.3971 11.913z"/><path d="m615.57 445.122-16.398-11.92-16.397 11.92 6.26-19.284-16.398-11.914h20.27l6.265-19.279 6.263 19.279h20.271l-16.398 11.914z"/><path d="m512.769 445.122-16.398-11.92-16.398 11.92 6.262-19.284-16.397-11.914h20.268l6.265-19.279 6.265 19.279h20.269l-16.399 11.914z"/><path d="m409.97 445.122-16.397-11.92-16.4 11.92 6.262-19.284-16.397-11.914h20.269l6.266-19.279 6.263 19.279h20.27l-16.398 11.914z"/><path d="m307.169 445.122-16.399-11.92-16.398 11.92 6.263-19.284-16.399-11.914h20.27l6.264-19.279 6.265 19.279h20.269l-16.397 11.914z"/><path d="m204.37 445.122-16.399-11.92-16.397 11.92 6.262-19.284-16.398-11.914h20.269l6.264-19.279 6.266 19.279h20.268l-16.398 11.914z"/><path d="m101.568 445.122-16.3975-11.92-16.3985 11.92 6.2623-19.284-16.3973-11.914h20.2701l6.2634-19.279 6.2645 19.279h20.27l-16.3971 11.914z"/></g></svg>